<?xml version="1.0" encoding="UTF-8"?>
<svg width="1200pt" height="1200pt" version="1.1" viewBox="0 0 1200 1200" xmlns="http://www.w3.org/2000/svg">
 <g>
  <path d="m1200 600c0 214.36-114.36 412.44-300 519.62-185.64 107.18-414.36 107.18-600 0-185.64-107.18-300-305.26-300-519.62s114.36-412.44 300-519.62c185.64-107.18 414.36-107.18 600 0 185.64 107.18 300 305.26 300 519.62" fill="#12b0fb"/>
  <path d="m722.43 610.58h-80.859c-9.0703 0-16.625-7.5586-16.625-16.625v-12.848h3.0234v12.848c0 7.5547 6.043 13.602 13.602 13.602h80.863c7.5547 0 13.602-6.0469 13.602-13.602v-12.09h3.0234v12.09c0 9.0664-7.5586 16.625-16.629 16.625zm19.648-39.297c0-10.578-8.3125-19.648-19.648-19.648h-80.859c-10.578 0-19.648 8.3125-19.648 19.648v9.8242h8.3125v-9.8242c0-6.0469 4.5352-10.578 10.578-10.578h80.863c6.0469 0 10.578 4.5352 10.578 10.578v10.578h8.3125v-10.578zm-142.83-9.0703c0-4.5352-2.2656-8.3125-4.5352-12.09-3.7773-3.7773-8.3125-6.0469-13.602-6.0469l-80.863-3.7773c-10.578-0.75391-19.648 7.5586-20.402 18.137l-0.75781 9.8242h4.5352-1.5117l-0.75391 12.09c-0.75391 9.0703 6.8008 17.383 15.871 17.383l80.863 3.7773h0.75391c9.0703 0 15.871-6.8008 16.625-15.871l0.75391-12.09h3.0234v-6.0469c8.3125-2.2656 21.16-0.75391 24.938 0.75391l3.0234-5.2891c-4.5352-1.5078-18.137-3.0195-27.961-0.75391zm-6.0469 12.094-0.75391 12.09c0 7.5586-6.8008 12.848-14.359 12.848l-80.863-3.7773c-7.5586 0-13.602-6.8008-12.848-14.359l0.75391-12.09h3.0234l0.75391-9.8242c0-6.0469 5.2891-10.578 11.336-10.578l80.863 3.7773c3.0234 0 5.2891 1.5117 7.5586 3.7773 2.2656 2.2656 3.0234 5.2891 3.0234 7.5586l-1.5117 10.578h4.5352z" fill="#ff001b"/>
  <path d="m840.32 545.59c3.0234-8.3125 6.0469-25.695 9.8242-68.016l12.469 6.2383-18.516-42.512 12.848 6.8008-15.113-34.008 17.383 7.5586c-9.8281-28.715-18.141-49.875-33.254-76.328-23.426-39.297-62.723-61.211-107.31-70.281-27.207-5.2891-111.84-10.578-111.84-10.578l8.3125 9.8242-51.387 6.8008 13.602 14.359-47.609 12.848 17.379 10.578-42.32 24.184 14.359 9.0703s-12.09 24.184-15.113 31.738c-19.648 47.609-21.16 94.465-17.383 145.1 0 2.2656 1.5117 9.0703 4.5352 8.3125 0.75391 0 1.5117-0.75391 2.2656-0.75391v6.8008s2.2656 55.168 3.0234 78.594c0 24.184 0.75391 43.074 2.2656 56.68 6.0469 40.055 11.336 66.504 40.055 99.754 15.871 18.137 43.832 29.473 74.059 29.473 13.602 0 26.449-2.2656 37.785-6.8008 43.074-16.625 79.352-45.344 101.27-80.105 6.8047-10.582 13.605-25.695 19.648-39.301 0.75781-2.2656 2.2695-4.5312 3.0234-6.8008 2.2656 0.75391 4.5352 1.5117 7.5586 1.5117 19.648 0 43.074-24.938 47.609-31.738 8.3125-12.09 27.207-43.832 25.695-68.016-1.5117-13.602-6.8008-24.184-15.113-30.984zm-69.527 115.62c-0.75391-0.75781-1.5117-1.5117-1.5117-2.2656-7.5586 16.625-17.383 39.297-26.449 54.41-20.402 35.52-57.434 62.723-95.977 76.328-31.738 11.336-78.594 5.2891-101.27-20.402-18.137-20.402-26.449-37.785-31.738-59.703-2.2656-10.578-4.5352-21.914-6.0469-34.762-3.7773-24.938-0.75391-76.328-5.2891-133v-11.336c3.0234-7.5586 1.5117-37.785 7.5586-49.879 7.5586-15.113 14.359-24.184 25.695-34.762 6.0469-5.2891 29.473-24.938 29.473-24.938l-9.0703 24.938 61.211-25.695-21.914 20.402 59.703-12.09-16.625 15.113 58.945-7.5586-5.2891 17.383 34.762-6.8008-8.3125 12.848 37.031-3.0234-14.359 15.113 25.695-6.8008 3.0234 40.809 8.3125 3.7773s3.0234 44.586 3.7773 58.191c0 4.5352 0.75391 30.23 0.75391 30.23l8.3125-7.5586s21.16-36.273 16.625-30.984c-3.7773 4.5352 11.336-15.113 24.938-6.8008 6.0469 4.5352 10.578 12.848 11.336 23.426 1.5117 19.648-13.602 46.852-24.184 61.969-6.0469 9.0703-30.23 31.738-44.586 26.449-2.2695-0.75781-3.7812-1.5117-4.5352-3.0234zm-291.71-101.27-0.75391-10.578 15.113-5.2891 0.75781 12.09zm61.969-30.23c9.0703 0 18.137 0 27.207 2.2656 1.5117 0.75781 19.648 6.8047 19.648 6.8047s0.75391-6.8008 1.5117-10.582v-1.5117c0-0.75391-0.75391-1.5117-1.5117-2.2656-4.5352-3.0234-10.578-4.5352-15.871-5.2891-8.3125 0-15.871-1.5117-24.184-0.75391-7.5586 0.75391-15.113 2.2656-22.672 4.5352-3.0195 0.75391-13.602 1.5078-14.355 5.2852 0 2.2656 1.5117 3.0234 4.5352 3.7773 6.8008 0.75781 22.668-2.2656 25.691-2.2656zm167.02 3.7812c-7.5586-2.2656-15.871-3.7773-23.426-4.5352-3.7773-0.75391-7.5586-0.75391-10.578-1.5117-3.0273-0.75391-6.8047-2.2656-9.8281-3.0234-5.2891-0.75391-12.848 0-18.137 2.2656-0.75391 0-1.5117 0.75391-2.2656 1.5117 0 0.75391 0 0.75391-0.75391 1.5117 0 1.5117-1.5117 6.0469 0 7.5586 1.5117 1.5117 6.8008 0.75391 8.3125 0.75391h18.137c12.844 1.5117 26.445 3.0234 39.293 5.293 2.2656 0.75391 25.695 4.5352 25.695 4.5352-0.75781-3.0234-2.2695-6.0469-5.2891-8.3164-3.0234-2.2656-5.2891-2.2656-8.3125-3.0234-4.5352 0.003907-9.0703-1.5078-12.848-3.0195zm102.02 18.891-3.7773-11.336-71.039 23.426 3.7773 11.336zm-281.12 18.895c6.0469 5.2891 9.0703 10.578 17.383 11.336 6.8008 1.5117 15.113 0.75391 21.914-3.0234 2.2656-0.75391-3.7773-3.0234-5.2891-2.2656-4.5352 2.2656-9.8242 3.0234-15.113 2.2656-5.293-0.75781-8.3164-5.2891-12.094-9.0703-2.2656-0.75391-9.0664-0.75391-6.8008 0.75781zm120.16 21.914c14.359 9.8242 35.52 9.8242 49.879 1.5117 4.5352-3.0234-5.2891-3.7773-7.5586-2.2656-10.578 6.0469-24.184 3.7773-34.008-3.0234-2.2695-1.5117-12.094 1.5117-8.3125 3.7773zm-68.016-24.938c-5.2891-8.3125-9.8242-14.359-18.895-16.625-3.0234-0.75781-9.8242-1.5117-11.336-1.5117-9.8242 0-19.648 2.2656-27.961 8.3125-4.5352 3.0234 9.0703 6.0469 12.09 3.7773 3.0234-2.2656 6.0469-3.7773 9.8242-5.2891-0.75391 1.5117-0.75391 2.2656-0.75391 3.7773 0 6.0469 5.2891 11.336 11.336 11.336 4.5352 0 8.3125-3.0234 10.578-6.8008 0.75391 0.75391 0.75391 1.5117 1.5117 3.0234 2.2695 3.7773 15.117 3.0234 13.605 0zm-21.16-3.7773c-2.2656 0-3.7773-1.5117-3.7773-3.7773s1.5117-3.7773 3.7773-3.7773 3.7773 1.5117 3.7773 3.7773c0 1.5078-1.5117 3.7773-3.7773 3.7773zm150.39 14.355c-5.2891-3.7773-9.0703-8.3125-14.359-11.336-4.5352-2.2656-9.0703-3.0234-14.359-3.7773-13.602-1.5117-25.691 1.5117-38.539 5.2891-0.75781 0-1.5117 0.75781-2.2695 0.75781-8.3125 2.2656 3.0234 6.0469 6.8008 4.5352 0.75781 0 1.5156-0.75781 2.2695-0.75781 6.0469-1.5117 12.09-3.7773 18.895-4.5352-2.2656 2.2656-3.7773 5.2891-3.7773 8.3125 0 6.0469 5.2891 11.336 11.336 11.336s11.336-5.2891 11.336-11.336c0-1.5117 0-3.0234-0.75391-4.5352 3.7734 2.2695 6.7969 6.0469 10.574 8.3164 3.7773 2.2656 16.625 0.75391 12.848-2.2695zm-31.738-0.75391c-2.2656 0-3.7773-1.5117-3.7773-3.7773s1.5117-3.7773 3.7773-3.7773 3.7773 1.5117 3.7773 3.7773-1.5117 3.7773-3.7773 3.7773zm-53.656 53.656c2.2656 6.0469 1.5117 12.09 1.5117 18.137 0 1.5117 0 2.2656-0.75391 3.7773-0.75391 3.7773-3.7773 5.2891-6.8008 4.5352-2.2695-0.75391-1.5156-1.5117-6.8047-0.75391-3.7773 0-6.0469 1.5117-9.0703 3.0234-5.2891 3.0234-15.113 9.0703-21.16 3.7773-0.75391-0.75781-1.5117-1.5117-1.5117-2.2695-2.2656-3.0234-5.2891-5.2891-9.0703-7.5586-3.0234-2.2656-3.7773-3.7773-5.2891-7.5586v-3.0234c0-7.5586 3.0234-12.09 6.0469-18.137 0.75391-1.5117-0.75391-1.5117-3.0234 0.75391-6.0469 6.0469-8.3125 10.578-8.3125 18.895 0 1.5117 1.5117 4.5352 1.5117 6.0469 0 0.75391 0.75391 2.2656 1.5117 3.0234 2.2656 3.0234 3.7773 3.7773 6.0469 5.2891 3.0234 2.2656 7.5586 6.0469 11.336 8.3125 3.7773 3.0234 8.3125 3.0234 12.848 0.75391 3.7773-2.2656 7.5586-5.2891 11.336-6.0469 3.0234-0.75391 6.0469 0 9.0703 0 3.0234 0 8.3125 0 10.578-1.5117 3.0234-1.5117 6.0469-7.5586 6.8008-10.578 0.75391-1.5117 0.75391-3.0234 0.75391-6.0469 0-5.2891-1.5117-9.0703-5.2891-12.848-0.75391 0.76172-1.5117 0.007813-2.2656 0.007813zm194.22-55.742c3.7773 4.9766 6.0469 10.578 6.0469 16.801 0 5.6016-0.75391 14.934-7.5586 18.047-1.5117 0.62109 3.0234 1.2461 4.5352 1.2461 6.0469-2.4883 7.5586-11.203 8.3125-16.18 0.75391-6.8438-2.2656-13.691-6.8008-19.289-0.75781-1.8711-5.293-1.2461-4.5352-0.625zm-25 33.07c2.0859 8.3125 3.1289 16.625-1.5625 22.672-1.5625 1.5117 4.6914 6.8008 6.7773 4.5352 5.7344-6.8008 4.6914-16.625 2.0859-25.695-1.043-3.0234-8.3438-4.5352-7.3008-1.5117zm145.91 329.11-674.1 1.1328-0.75781-126.2 169.28-68.016-17.383 148.12 116.38-43.832 28.715 69.527 79.352-75.57h1.5117l129.23 46.098 7.5586-137.54 137.54 55.922zm-180.62-65.367 6.8008-123.94v-1.5117l-33.25-11.336-86.152 95.977h0.75391zm-327.22 0 95.973-36.277-17.383-41.562-18.895-46.098 24.945-9.8242-9.0703-23.426-36.273 13.602-25.695 9.0703zm323.45-186.66c0 0.75781-0.75781 0.75781-0.75781 1.5117 0-0.75391 0.75781-0.75391 0.75781-1.5117zm-12.094 23.43c0-0.75391 0.75391-0.75391 0.75391-1.5117 0.003906 0-0.75391 0.75391-0.75391 1.5117z" fill="#ff001b"/>
  <path d="m550.84 691.65c5.0039-0.53125 9.7227 0.027343 14.668 0.36719 11.621 0.79297 23.074 4.9688 34.574 4.9688h-0.26172l15.996 0.51953 13.375 1.2188s9.6367 1.5156 18.488 2.6211c3.1484 0.39453 12.535 1.9609 12.535 1.9609s-0.65234 1.8281-3.9531 2.2891c-18.293 2.543-38.375 2.0977-56.703 0.99609-16.293-0.98047-30.945-6.293-45.184-12.41-1.043-0.29688-3.5352-2.5312-3.5352-2.5312z" fill="#ff001b"/>
  <path d="m613.01 716.64c0.14453-1.2539 1.0078-1.9922 2.2852-1.9219 1.4023 0.070312 2.043 0.99219 2.1484 2.3477-0.28516 1.332-1.0664 2.1602-2.4531 2.0156-1.3828-0.14453-2.125-1.0625-1.9805-2.4414z" fill="#ff001b"/>
  <path d="m604.39 727.23c1.3867 0.14453 2.168-0.68359 2.4531-2.0156-0.10547-1.3594-0.74219-2.2773-2.1484-2.3477-1.2812-0.070313-2.1406 0.66797-2.2852 1.9219-0.14453 1.3789 0.60156 2.2969 1.9805 2.4414z" fill="#ff001b"/>
  <path d="m595.95 717.72c1.3867 0.14453 2.168-0.68359 2.4531-2.0156-0.10547-1.3594-0.74219-2.2773-2.1484-2.3477-1.2812-0.070313-2.1406 0.66797-2.2852 1.9219-0.14453 1.3789 0.60156 2.2969 1.9805 2.4414z" fill="#ff001b"/>
  <path d="m594.61 735.27c1.3867 0.14453 2.168-0.68359 2.4531-2.0156-0.10547-1.3594-0.74219-2.2773-2.1484-2.3477-1.2812-0.070313-2.1406 0.66797-2.2852 1.9219-0.14453 1.3789 0.60156 2.2969 1.9805 2.4414z" fill="#ff001b"/>
  <path d="m585.47 725.7c1.3867 0.14453 2.168-0.68359 2.4531-2.0156-0.10547-1.3594-0.74219-2.2773-2.1484-2.3477-1.2812-0.070313-2.1406 0.66797-2.2852 1.9219-0.14063 1.3789 0.60156 2.2969 1.9805 2.4414z" fill="#ff001b"/>
  <path d="m577.12 716.42c1.3867 0.14453 2.168-0.68359 2.4531-2.0156-0.10547-1.3594-0.74219-2.2773-2.1484-2.3477-1.2812-0.070313-2.1406 0.66797-2.2852 1.9219-0.14062 1.3789 0.60156 2.2969 1.9805 2.4414z" fill="#ff001b"/>
  <path d="m523.76 729.45c1.2266 0.007813 1.9805-0.71484 1.9805-1.9375 0.007812-1.2422-0.78906-1.8477-1.9805-1.9883-1.1914 0.20312-1.9453 0.84766-1.8984 2.0898 0.054688 1.1172 0.76562 1.8203 1.8984 1.8359z" fill="#ff001b"/>
  <path d="m530.38 722.53c1.2266 0.007812 1.9805-0.71484 1.9805-1.9375 0.007812-1.2422-0.78906-1.8477-1.9805-1.9883-1.1914 0.20313-1.9453 0.84766-1.8984 2.0898 0.054688 1.1133 0.76563 1.8203 1.8984 1.8359z" fill="#ff001b"/>
  <path d="m531.67 733.44c-1.2266 0.015625-1.9375 0.77344-1.9219 1.9961 0.023437 1.1328 0.73828 1.8398 1.8633 1.8789 1.2422 0.050782 1.8789-0.71484 2.0742-1.9062-0.16016-1.1914-0.76562-1.9883-2.0156-1.9688z" fill="#ff001b"/>
  <path d="m539.52 741.31c-1.1328 0.015625-1.8477 0.72266-1.8984 1.8555-0.050782 1.2344 0.71484 1.8633 1.9062 2.0664 1.1992-0.15234 1.9883-0.74609 1.9805-1.9883-0.007812-1.2305-0.77344-1.9492-1.9883-1.9336z" fill="#ff001b"/>
  <path d="m547.5 753.05c1.125-0.015625 1.8398-0.73047 1.8789-1.8555 0.050782-1.2422-0.72266-1.8789-1.9062-2.0742-1.1992 0.15234-1.9961 0.76562-1.9805 2.0039 0.019531 1.2305 0.78906 1.9531 2.0078 1.9258z" fill="#ff001b"/>
  <path d="m539.6 757c-1.1992 0.15234-1.9883 0.76172-1.9727 1.9961 0.015625 1.2266 0.77344 1.9453 1.9961 1.9219 1.1328-0.015624 1.8359-0.73047 1.8789-1.8555 0.054688-1.2305-0.71094-1.8711-1.9023-2.0625z" fill="#ff001b"/>
  <path d="m547.43 764.91c-1.2266 0.015625-1.9531 0.77344-1.9297 1.9961 0.023438 1.1328 0.73828 1.8281 1.8555 1.8789 1.2422 0.050782 1.8789-0.71484 2.0742-1.9062-0.16406-1.1992-0.76953-1.9844-2-1.9688z" fill="#ff001b"/>
  <path d="m564.04 752.19c1.1328-0.007812 1.8477-0.71484 1.9062-1.8359 0.066406-1.2344-0.69531-1.8789-1.8789-2.0898-1.1992 0.14453-1.9961 0.73828-1.9961 1.9805-0.003906 1.2227 0.75 1.9531 1.9688 1.9453z" fill="#ff001b"/>
  <path d="m558.07 758.16c0.042969-1.1328-0.64453-1.8711-1.7461-1.9805-1.2344-0.11719-2.0312 0.58594-2.1406 1.7891-0.10938 1.2344 0.66406 1.8984 1.8281 2.1328 1.2109-0.10937 2.0078-0.70703 2.0586-1.9414z" fill="#ff001b"/>
  <path d="m571.89 756.17c-1.2266 0.007813-1.9727 0.74609-1.957 1.9648 0.015625 1.2422 0.8125 1.8477 2.0312 1.9648 1.168-0.22656 1.9219-0.87109 1.8477-2.1133-0.070312-1.1211-0.78125-1.8242-1.9219-1.8164z" fill="#ff001b"/>
  <path d="m587.61 760.11c1.1992-0.16797 1.9727-0.78906 1.9531-2.0312-0.007813-1.1328-0.71484-1.8477-1.8359-1.8984-1.2266-0.058594-1.9961 0.66406-2.0391 1.8789-0.039063 1.2422 0.73828 1.875 1.9219 2.0508z" fill="#ff001b"/>
  <path d="m601.44 758.07c-0.042969 1.1406 0.64453 1.8789 1.7539 1.9805 1.2266 0.11719 2.0234-0.58594 2.125-1.7969 0.042969-0.48438-0.14453-0.80859-0.33984-1.125-0.99219-0.085937-1.9922-0.26172-2.9883-0.375-0.32422 0.3125-0.53125 0.73047-0.55078 1.3164z" fill="#ff001b"/>
  <path d="m617.19 758.02c-0.058594 1.25 0.70312 1.8867 1.9062 2.082 1.1992-0.14062 1.9883-0.75391 1.9727-1.9961-0.003906-0.41016-0.19922-0.66406-0.35938-0.95312-1.0781 0.074218-2.1562 0.15234-3.2461 0.19141-0.09375 0.22266-0.26172 0.39062-0.27344 0.67578z" fill="#ff001b"/>
  <path d="m634.95 760.05c1.1328-0.015625 1.8359-0.73047 1.8789-1.8555 0.050781-1.2344-0.71484-1.8711-1.9062-2.0625-1.1992 0.15234-1.9883 0.76563-1.9727 1.9961 0.019532 1.2227 0.77344 1.9453 2 1.9219z" fill="#ff001b"/>
  <path d="m566.01 765.89c-0.21094-1.0312-0.77344-1.8711-2.0312-1.8555-1.2266 0.027344-1.9453 0.78125-1.9219 2.0039 0.023437 1.125 0.73047 1.8281 1.8555 1.8711 1.2383 0.042969 1.8789-0.71875 2.0977-2.0195z" fill="#ff001b"/>
  <path d="m581.7 766c0-1.2266-0.74609-1.9531-1.9727-1.9531-1.1328 0-1.8477 0.70312-1.9141 1.8281-0.074219 1.2344 0.6875 1.8711 1.9727 2.1133 1.0586-0.18359 1.9141-0.73828 1.9141-1.9883z" fill="#ff001b"/>
  <path d="m597.43 766.12c0.10156-1.2344-0.67188-1.8867-1.8359-2.1133-1.2188 0.11719-2.0039 0.71484-2.0391 1.9531-0.035156 1.125 0.64453 1.8555 1.7617 1.957 1.2227 0.10938 2.0195-0.59766 2.1133-1.7969z" fill="#ff001b"/>
  <path d="m613.2 765.95c-0.007812-1.1328-0.71484-1.8477-1.8281-1.9062-1.2266-0.058594-2.0039 0.65625-2.0547 1.8789-0.035156 1.2344 0.74609 1.8633 1.9297 2.0469 1.1953-0.16406 1.9609-0.78516 1.9531-2.0195z" fill="#ff001b"/>
  <path d="m629 765.96c-0.17578-1.1914-0.80469-1.957-2.0547-1.9297-1.125 0.035156-1.8359 0.73828-1.8789 1.8633-0.035156 1.2266 0.6875 1.9883 1.9219 2.0156 1.2305 0.023438 1.8516-0.75781 2.0117-1.9492z" fill="#ff001b"/>
  <path d="m644.75 766.02c-0.16016-1.1992-0.76562-1.9883-1.9961-1.9727-1.2266 0.015625-1.9531 0.77344-1.9297 1.9961 0.023438 1.1328 0.73828 1.8281 1.8555 1.8789 1.2422 0.054687 1.8789-0.71094 2.0703-1.9023z" fill="#ff001b"/>
  <path d="m556 771.91c-1.1172 0.066406-1.8203 0.78125-1.8125 1.9219 0.007812 1.2266 0.74609 1.9727 1.9727 1.9531 1.2344-0.007812 1.8359-0.8125 1.9531-2.0312-0.22656-1.1641-0.88281-1.918-2.1133-1.8438z" fill="#ff001b"/>
  <path d="m571.96 771.91c-1.2266-0.035156-1.9883 0.67969-2.0234 1.9062-0.023438 1.2422 0.75391 1.8633 1.957 2.0234 1.1914-0.17578 1.9531-0.8125 1.9219-2.0469-0.035156-1.1367-0.73047-1.8477-1.8555-1.8828z" fill="#ff001b"/>
  <path d="m589.57 773.88c0.023438-1.2422-0.77344-1.8555-1.9648-2.0156-1.1914 0.17578-1.957 0.8125-1.9219 2.0469 0.035156 1.1328 0.73828 1.8359 1.8555 1.8789 1.2344 0.035157 1.9961-0.68359 2.0312-1.9102z" fill="#ff001b"/>
  <path d="m605.32 773.84c-0.015624-1.2266-0.78125-1.957-2.0039-1.9297-1.125 0.015625-1.8281 0.73047-1.8789 1.8555-0.050781 1.2422 0.72266 1.8789 1.9062 2.0742 1.1992-0.15234 1.9961-0.76563 1.9766-2z" fill="#ff001b"/>
  <path d="m621.11 773.75c-0.21875-1.168-0.87109-1.9219-2.1055-1.8477-1.125 0.066406-1.8281 0.78125-1.8203 1.9219 0.007812 1.2266 0.74609 1.9727 1.9805 1.9531 1.2344-0.003906 1.8398-0.8125 1.9453-2.0273z" fill="#ff001b"/>
  <path d="m636.89 773.71c-0.24219-1.0156-0.80469-1.8555-2.0742-1.8047-1.125 0.042969-1.8359 0.73828-1.8711 1.8555-0.042968 1.2344 0.67969 1.9883 1.9062 2.0234 1.2422 0.03125 1.8633-0.75781 2.0391-2.0742z" fill="#ff001b"/>
  <path d="m674.88 719.67c1.2266 0.007812 1.9805-0.71484 1.9883-1.9375 0.007812-1.2422-0.79688-1.8477-1.9883-1.9805-1.1836 0.20312-1.9453 0.83984-1.8867 2.082 0.011718 0.23828 0.16016 0.37109 0.22656 0.56641 0.37891 0.35937 0.76562 0.73437 1.1328 1.0742 0.1875 0.050782 0.30469 0.19531 0.52734 0.19531z" fill="#ff001b"/>
  <path d="m674.36 719.47c-0.36719-0.34375-0.75391-0.71484-1.1328-1.0742 0.1875 0.55078 0.5625 0.91406 1.1328 1.0742z" fill="#ff001b"/>
  <path d="m690.63 719.66c1.2344 0.042969 1.8633-0.73828 2.0312-1.9297-0.16797-1.1914-0.78906-1.9531-2.0312-1.9375-1.1328 0.015625-1.8555 0.71484-1.8945 1.8359-0.054687 1.2266 0.66016 1.9883 1.8945 2.0312z" fill="#ff001b"/>
  <path d="m706.47 715.79c-1.1406-0.035156-1.8711 0.64453-1.9648 1.7539-0.11719 1.2266 0.58594 2.0156 1.7969 2.1133 1.2422 0.10156 1.9062-0.67188 2.125-1.8359-0.11328-1.207-0.71484-1.9883-1.957-2.0312z" fill="#ff001b"/>
  <path d="m722.2 719.67c1.2344 0 1.8477-0.79688 1.9727-2.0039-0.21875-1.1758-0.86328-1.9297-2.1055-1.8633-1.1172 0.058594-1.8203 0.77344-1.8281 1.9062 0.003906 1.2227 0.74219 1.9609 1.9609 1.9609z" fill="#ff001b"/>
  <path d="m737.86 715.8c-1.1328 0.035157-1.8477 0.73828-1.8711 1.8711-0.015626 1.2266 0.71484 1.9805 1.9297 1.9961 1.2344 0.015625 1.8555-0.77344 2.0039-1.9648-0.19141-1.1914-0.83203-1.9453-2.0625-1.9023z" fill="#ff001b"/>
  <path d="m684.79 725.69c-0.10938-1.1992-0.70312-1.9961-1.9453-2.0391-1.1328-0.035156-1.8711 0.64453-1.9727 1.7539-0.003906 0.042969 0.027344 0.058594 0.027344 0.10156 0.73828 0.69922 1.3594 1.3398 1.9336 1.9609 1.0977 0 1.7344-0.6875 1.957-1.7773z" fill="#ff001b"/>
  <path d="m682.66 727.52c0.074219 0.007812 0.10156-0.054688 0.17188-0.054688-0.57031-0.62109-1.1953-1.2617-1.9336-1.9609-0.058594 1.1562 0.60156 1.9258 1.7617 2.0156z" fill="#ff001b"/>
  <path d="m698.55 723.66c-1.2266 0.007813-1.9453 0.77344-1.9297 1.9961 0.015625 1.125 0.73047 1.8281 1.8555 1.8789 1.2344 0.050782 1.8789-0.71484 2.082-1.8945-0.16406-1.1953-0.76562-2-2.0078-1.9805z" fill="#ff001b"/>
  <path d="m714.27 727.54c1.2266 0.007813 1.9805-0.71484 1.9805-1.9375 0.007812-1.2422-0.78906-1.8477-1.9805-1.9883-1.1914 0.20312-1.9453 0.84766-1.8984 2.0898 0.050781 1.1133 0.76562 1.8203 1.8984 1.8359z" fill="#ff001b"/>
  <path d="m730.1 723.66c-1.2266 0-1.9727 0.73047-1.9648 1.9531 0 1.2344 0.80469 1.8398 2.0039 1.9648 1.1758-0.21094 1.9375-0.86328 1.8711-2.0977-0.070312-1.1172-0.77734-1.8203-1.9102-1.8203z" fill="#ff001b"/>
  <path d="m690.68 731.54c-1.2344 0.007813-1.9648 0.76172-1.9375 1.9883 0.015625 1.1328 0.72266 1.8359 1.8477 1.8867 1.2422 0.050782 1.8789-0.71484 2.082-1.8984-0.15625-1.1875-0.75781-1.9844-1.9922-1.9766z" fill="#ff001b"/>
  <path d="m708.37 733.52c0.042968-1.2344-0.74609-1.8633-1.9375-2.0391-1.1992 0.16797-1.9531 0.79688-1.9375 2.0312 0.015625 1.1328 0.72266 1.8555 1.8281 1.8984 1.2344 0.046875 2.0078-0.67578 2.0469-1.8906z" fill="#ff001b"/>
  <path d="m722.17 731.53c-1.2266 0.015625-1.9375 0.77344-1.9219 1.9961 0.023437 1.1328 0.73828 1.8359 1.8633 1.8789 1.2422 0.050781 1.8789-0.71484 2.0742-1.9062-0.16016-1.1914-0.76562-1.9883-2.0156-1.9688z" fill="#ff001b"/>
  <path d="m682.84 739.39c-1.1328-0.042969-1.8711 0.64453-1.9727 1.7539-0.11719 1.2266 0.58594 2.0234 1.7891 2.1133 1.2422 0.10938 1.8945-0.67187 2.1328-1.8281-0.10938-1.2109-0.70703-2-1.9492-2.0391z" fill="#ff001b"/>
  <path d="m698.46 739.39c-1.125 0.050781-1.8281 0.76562-1.8477 1.8945-0.015625 1.2266 0.71484 1.9727 1.9375 1.9805 1.2344 0 1.8555-0.78906 1.9883-1.9883-0.19531-1.1836-0.84375-1.9375-2.0781-1.8867z" fill="#ff001b"/>
  <path d="m714.35 739.39c-1.2266 0-1.9805 0.73047-1.9727 1.9531 0.007812 1.2344 0.8125 1.8359 2.0156 1.9648 1.1758-0.21875 1.9297-0.85547 1.8633-2.0977-0.078125-1.1094-0.78125-1.8203-1.9062-1.8203z" fill="#ff001b"/>
  <path d="m657.24 749.19c0 1.2266 0.75391 1.957 1.9727 1.9453 1.1328-0.007813 1.8477-0.71484 1.9062-1.8359 0.050781-0.91797-0.45703-1.4219-1.1602-1.75-0.8125 0.32422-1.6211 0.65234-2.4531 0.96484-0.089843 0.22266-0.26562 0.375-0.26562 0.67578z" fill="#ff001b"/>
  <path d="m657.51 748.51c0.83203-0.30859 1.6406-0.63672 2.4531-0.96484-0.24219-0.11328-0.41797-0.28516-0.71875-0.33984-0.91406 0.10938-1.4609 0.58984-1.7344 1.3047z" fill="#ff001b"/>
  <path d="m674.91 747.26c-1.1328 0-1.8477 0.70312-1.9141 1.8281-0.074219 1.2344 0.6875 1.8789 1.9727 2.1133 1.0586-0.18359 1.9141-0.73828 1.9141-1.9883 0-1.2266-0.74609-1.9531-1.9727-1.9531z" fill="#ff001b"/>
  <path d="m690.69 747.26c-1.2266 0-1.9531 0.75391-1.9453 1.9805 0.007812 1.1328 0.70312 1.8359 1.8359 1.8984 1.2422 0.066406 1.8789-0.69531 2.0898-1.8711-0.14453-1.2109-0.73828-2.0078-1.9805-2.0078z" fill="#ff001b"/>
  <path d="m706.55 747.26c-1.2266-0.058594-2.0039 0.66406-2.0547 1.8789-0.042969 1.2344 0.73828 1.8633 1.9219 2.0469 1.1992-0.16016 1.9727-0.78906 1.9648-2.0234-0.011718-1.1328-0.71484-1.8438-1.832-1.9023z" fill="#ff001b"/>
  <path d="m653.25 757.11c0.042968-1.1328-0.64453-1.8711-1.7461-1.9805-1.2344-0.11719-2.0312 0.58594-2.1406 1.7891-0.10938 1.2344 0.66406 1.8984 1.8281 2.1328 1.2109-0.11328 2.0078-0.70703 2.0586-1.9414z" fill="#ff001b"/>
  <path d="m667.07 755.12c-1.2266 0.007812-1.9727 0.74609-1.9531 1.9648 0.015625 1.2422 0.8125 1.8477 2.0312 1.9648 1.168-0.22656 1.9219-0.87109 1.8477-2.1133-0.070313-1.1211-0.78125-1.8281-1.9258-1.8164z" fill="#ff001b"/>
  <path d="m682.9 755.13c-1.2266-0.058593-1.9961 0.66406-2.0391 1.8789-0.042969 1.2422 0.73828 1.8711 1.9219 2.0469 1.1992-0.16797 1.9727-0.78906 1.957-2.0312-0.007813-1.1328-0.71484-1.8438-1.8398-1.8945z" fill="#ff001b"/>
  <path d="m698.66 755.08c-1.2266 0.10938-2.0039 0.70312-2.0469 1.9375-0.042969 1.1406 0.64453 1.8789 1.7539 1.9805 1.2266 0.11719 2.0234-0.58594 2.125-1.7969 0.10547-1.2422-0.66797-1.8867-1.832-2.1211z" fill="#ff001b"/>
  <path d="m661.18 764.84c-0.21094-1.0312-0.77344-1.8711-2.0312-1.8555-1.2266 0.027344-1.9453 0.78125-1.9219 2.0039 0.023437 1.125 0.73047 1.8281 1.8555 1.8711 1.2422 0.046875 1.8828-0.71875 2.0977-2.0195z" fill="#ff001b"/>
  <path d="m674.91 763c-1.1328 0-1.8477 0.70312-1.9141 1.8281-0.074219 1.2344 0.6875 1.8711 1.9727 2.1133 1.0586-0.18359 1.9141-0.73828 1.9141-1.9883 0-1.2227-0.74609-1.9531-1.9727-1.9531z" fill="#ff001b"/>
  <path d="m690.77 762.95c-1.2188 0.11719-2.0039 0.71484-2.0391 1.9531-0.035156 1.125 0.64453 1.8555 1.7617 1.957 0.48047 0.042969 0.83203-0.12891 1.1641-0.32031 0.125-0.066407 0.24219-0.13281 0.36719-0.19922 0.3125-0.3125 0.53906-0.72656 0.58203-1.2773 0.10547-1.2344-0.66797-1.8867-1.8359-2.1133z" fill="#ff001b"/>
  <path d="m692.03 766.35c-0.125 0.066406-0.24609 0.13281-0.36719 0.19922 0.12109-0.074219 0.26563-0.10156 0.36719-0.19922z" fill="#ff001b"/>
  <path d="m651.18 770.86c-1.1172 0.066406-1.8203 0.78125-1.8125 1.9219 0.007813 1.2266 0.74609 1.9727 1.9727 1.9531 1.2344-0.007813 1.8359-0.8125 1.957-2.0312-0.23047-1.1641-0.88672-1.9219-2.1172-1.8438z" fill="#ff001b"/>
  <path d="m667.14 770.86c-1.2266-0.035156-1.9883 0.67969-2.0234 1.9062-0.023437 1.2422 0.75391 1.8633 1.9531 2.0234 1.1914-0.17578 1.957-0.8125 1.9219-2.0469-0.03125-1.1367-0.72656-1.8516-1.8516-1.8828z" fill="#ff001b"/>
  <path d="m680.86 772.86c0.003907 0.11328 0.089844 0.16797 0.10547 0.27344 0.16016-0.12109 0.35547-0.25 0.50391-0.37109 0.61328-0.5 1.4375-1.0391 2.2305-1.5703-0.28516-0.14844-0.53516-0.33203-0.91797-0.38281-1.1914 0.17969-1.9531 0.81641-1.9219 2.0508z" fill="#ff001b"/>
  <path d="m564.68 779.72c-1.0586 0.17578-1.8945 0.70312-1.9297 1.9648-0.035156 1.1328 0.64453 1.8633 1.7539 1.9648 1.2344 0.11719 2.0312-0.57813 2.125-1.7891 0.10547-1.2344-0.67578-1.8945-1.9492-2.1406z" fill="#ff001b"/>
  <path d="m580.4 779.74c-1.1836 0.20312-1.9453 0.83984-1.8867 2.082 0.050781 1.125 0.75391 1.8281 1.8867 1.8359 1.2266 0.007812 1.9805-0.71484 1.9883-1.9375 0.007813-1.2422-0.79688-1.8477-1.9883-1.9805z" fill="#ff001b"/>
  <path d="m596.15 779.78c-1.1328 0.015625-1.8555 0.71484-1.8945 1.8359-0.050781 1.2266 0.66406 1.9883 1.8945 2.0312 1.2344 0.042969 1.8633-0.73828 2.0312-1.9297-0.16797-1.1875-0.78906-1.9531-2.0312-1.9375z" fill="#ff001b"/>
  <path d="m611.99 779.78c-1.1406-0.035156-1.8711 0.64453-1.9648 1.7539-0.11719 1.2266 0.58594 2.0156 1.7969 2.1133 1.2422 0.10156 1.9062-0.67188 2.125-1.8359-0.11328-1.207-0.71484-1.9883-1.957-2.0312z" fill="#ff001b"/>
  <path d="m627.59 779.79c-1.1172 0.058594-1.8203 0.77344-1.8281 1.9062 0.007812 1.2266 0.74609 1.9648 1.9648 1.9648 1.2344 0 1.8477-0.79688 1.9727-2.0039-0.22266-1.1758-0.86719-1.9336-2.1094-1.8672z" fill="#ff001b"/>
  <path d="m643.38 779.79c-1.1328 0.035156-1.8477 0.73828-1.8711 1.8711-0.015625 1.2266 0.71484 1.9805 1.9297 1.9961 1.2344 0.015625 1.8555-0.77344 2.0039-1.9648-0.19141-1.1875-0.82812-1.9414-2.0625-1.9023z" fill="#ff001b"/>
  <path d="m588.36 787.64c-1.1328-0.035156-1.8711 0.64453-1.9727 1.7539-0.11719 1.2266 0.58594 2.0234 1.7891 2.1133 1.2422 0.10156 1.8945-0.67187 2.1328-1.8281-0.10938-1.1992-0.70703-1.9961-1.9492-2.0391z" fill="#ff001b"/>
  <path d="m604.07 787.65c-1.2266 0.007812-1.9453 0.77344-1.9297 1.9961 0.015625 1.125 0.73047 1.8281 1.8555 1.8789 1.2344 0.050781 1.8789-0.71484 2.082-1.8945-0.16016-1.1914-0.76562-1.9961-2.0078-1.9805z" fill="#ff001b"/>
  <path d="m619.79 787.6c-1.1914 0.20313-1.9453 0.84766-1.8984 2.0898 0.050781 1.1172 0.76562 1.8203 1.8984 1.8359 1.2266 0.007812 1.9805-0.71484 1.9805-1.9375 0.007813-1.2422-0.78906-1.8477-1.9805-1.9883z" fill="#ff001b"/>
  <path d="m635.62 787.65c-1.2266 0-1.9727 0.73047-1.9648 1.9531 0 1.2344 0.80469 1.8398 2.0039 1.9648 1.1758-0.21094 1.9375-0.86328 1.8711-2.0977-0.070313-1.1133-0.77344-1.8203-1.9102-1.8203z" fill="#ff001b"/>
  <path d="m659.86 778.67c-1.0586 0.17578-1.8984 0.70312-1.9297 1.9648-0.035156 1.1328 0.64453 1.8633 1.7539 1.9648 1.2344 0.11719 2.0312-0.57812 2.125-1.7891 0.10547-1.2344-0.67578-1.8984-1.9492-2.1406z" fill="#ff001b"/>
  <path d="m507.85 665.41c1.2344 0.050781 1.8789-0.71484 2.082-1.8984-0.16016-1.1914-0.76563-1.9961-2.0039-1.9805-0.92578 0.007812-1.4375 0.54688-1.6875 1.2891 0.019531 0.49609 0.046875 1.0234 0.074219 1.543 0.28906 0.58203 0.76172 1.0117 1.5352 1.0469z" fill="#ff001b"/>
  <path d="m515.7 673.27c1.2344 0.050781 2.0039-0.67188 2.0469-1.8867 0.042968-1.2344-0.74609-1.8633-1.9375-2.0391-1.1992 0.16797-1.957 0.79688-1.9375 2.0312 0.015624 1.1328 0.71875 1.8555 1.8281 1.8945z" fill="#ff001b"/>
  <path d="m547.19 673.27c1.2422 0.066407 1.8867-0.69531 2.1055-1.8633-0.019531-0.1875-0.13281-0.28906-0.17969-0.45312-1.1523 0.41016-2.2578 0.85938-3.2812 1.3906-0.03125 0.015625-0.058594 0.03125-0.089844 0.046875 0.30859 0.48438 0.75781 0.83984 1.4453 0.87891z" fill="#ff001b"/>
  <path d="m521.75 679.21c0.007812 1.2344 0.8125 1.8359 2.0156 1.9648 0.66016-0.12109 1.1328-0.42188 1.4531-0.84375-0.11719-0.17188-0.19141-0.29297-0.30859-0.46484-0.53125-0.77344-1.0938-1.6133-1.6523-2.4453-0.89844 0.19141-1.5156 0.76172-1.5078 1.7891z" fill="#ff001b"/>
  <path d="m539.39 681.18c1.1992-0.15234 1.9883-0.74609 1.9805-1.9883-0.007812-1.2266-0.77344-1.9453-1.9883-1.9297-1.1328 0.015625-1.8477 0.72266-1.8984 1.8555-0.050781 1.2305 0.71484 1.8633 1.9062 2.0625z" fill="#ff001b"/>
  <path d="m515.92 685.13c-1.2266-0.058594-2.0039 0.66406-2.0547 1.8789-0.042969 1.2344 0.73828 1.8633 1.9219 2.0469 1.1992-0.16016 1.9727-0.78906 1.9648-2.0234-0.011718-1.1289-0.71484-1.8438-1.832-1.9023z" fill="#ff001b"/>
  <path d="m531.59 689c1.2344-0.007812 1.8359-0.8125 1.957-2.0234-0.22656-1.1758-0.87109-1.9297-2.1133-1.8555-1.125 0.074219-1.8203 0.78906-1.8203 1.9219 0.011719 1.2266 0.75781 1.9648 1.9766 1.957z" fill="#ff001b"/>
  <path d="m523.64 696.92c1.1992-0.14453 1.9883-0.75391 1.9727-1.9961-0.007812-1.2266-0.76562-1.9492-1.9805-1.9297-1.1406 0.015624-1.8477 0.73047-1.8984 1.8477-0.054687 1.25 0.70703 1.8867 1.9062 2.0781z" fill="#ff001b"/>
  <path d="m537.5 694.95c0.015625 1.2266 0.77344 1.9453 1.9961 1.9219 1.1328-0.015626 1.8359-0.73047 1.8789-1.8555 0.050781-1.2344-0.71484-1.8711-1.9062-2.0664-1.1953 0.15625-1.9844 0.76953-1.9688 2z" fill="#ff001b"/>
  <path d="m515.91 700.86c-1.2266-0.058593-2.0039 0.65625-2.0547 1.8789-0.035156 1.2344 0.74609 1.8633 1.9297 2.0469 1.1992-0.16797 1.9648-0.78906 1.957-2.0234-0.011719-1.1289-0.71875-1.8438-1.832-1.9023z" fill="#ff001b"/>
  <path d="m531.53 704.73c1.2344 0.027343 1.8555-0.75391 2.0156-1.9453-0.17578-1.1914-0.80469-1.9531-2.0547-1.9297-1.125 0.035156-1.8359 0.73828-1.8789 1.8633-0.039062 1.2227 0.68359 1.9883 1.918 2.0117z" fill="#ff001b"/>
  <path d="m523.72 712.6c1.2344-0.007812 1.8359-0.8125 1.9453-2.0312-0.21875-1.168-0.87109-1.9219-2.1055-1.8477-1.125 0.066406-1.8281 0.78125-1.8203 1.9219 0.007813 1.2266 0.74609 1.9766 1.9805 1.957z" fill="#ff001b"/>
  <path d="m561.93 670.41c-0.015625 1.2266 0.70312 1.9805 1.9297 1.9883 1.2422 0 1.8555-0.79688 1.9883-1.9961-0.14062-0.82031-0.59766-1.3125-1.2227-1.5938-0.28906-0.003906-0.57422-0.027344-0.86328-0.027344-0.25 0-0.46094 0.027344-0.70703 0.027344-0.64453 0.28906-1.1211 0.77734-1.125 1.6016z" fill="#ff001b"/>
  <path d="m611.02 672.41c1.2344 0.050781 2.0039-0.67188 2.0469-1.8867 0.042969-1.2344-0.74609-1.8633-1.9375-2.0391-1.1992 0.16797-1.957 0.79688-1.9375 2.0312 0.015625 1.1289 0.71875 1.8516 1.8281 1.8945z" fill="#ff001b"/>
  <path d="m626.8 672.41c1.2422 0.050781 1.8789-0.71484 2.0742-1.9062-0.16016-1.1914-0.76562-1.9883-2.0156-1.9727-1.2266 0.015625-1.9375 0.77344-1.9219 1.9961 0.027344 1.1328 0.73828 1.8398 1.8633 1.8828z" fill="#ff001b"/>
  <path d="m642.51 672.41c0.73047 0.039062 1.1992-0.26562 1.5547-0.71094-1.1055-0.35547-2.207-0.69141-3.3086-1.0234 0.085938 1.0117 0.71875 1.6719 1.7539 1.7344z" fill="#ff001b"/>
  <path d="m640.75 670.67c1.1016 0.33203 2.2031 0.66406 3.3086 1.0234 0.16406-0.20703 0.27344-0.47656 0.36719-0.76562-1.1719-0.37891-2.3398-0.73047-3.5078-1.082-0.070313 0.22266-0.23438 0.37109-0.23438 0.64453 0.003906 0.074218 0.0625 0.10937 0.066406 0.17969z" fill="#ff001b"/>
  <path d="m555.94 680.27c1.2344 0.042969 1.8711-0.73828 2.0391-1.9297-0.17578-1.1914-0.79688-1.9648-2.0391-1.9375-1.1328 0.015625-1.8477 0.72266-1.8984 1.8359-0.042969 1.2227 0.67188 1.9883 1.8984 2.0312z" fill="#ff001b"/>
  <path d="m571.6 680.26c1.2344 0.10938 1.8867-0.66406 2.125-1.8203-0.10156-1.207-0.69531-2.0039-1.9297-2.0469-1.1406-0.042969-1.8711 0.63672-1.9805 1.7461-0.11719 1.2266 0.57812 2.0234 1.7852 2.1211z" fill="#ff001b"/>
  <path d="m587.35 680.26c1.2422 0.10938 1.8984-0.67187 2.1328-1.8281-0.10938-1.207-0.70703-1.9961-1.9453-2.0391-1.1328-0.042969-1.8711 0.64453-1.9727 1.7539-0.12109 1.2266 0.58594 2.0234 1.7852 2.1133z" fill="#ff001b"/>
  <path d="m603.25 680.27c1.2344 0 1.8555-0.78906 1.9883-1.9883-0.20312-1.1836-0.84766-1.9375-2.082-1.8867-1.125 0.050781-1.8281 0.76562-1.8477 1.8984-0.015626 1.2188 0.71484 1.9648 1.9414 1.9766z" fill="#ff001b"/>
  <path d="m619.08 680.31c1.1758-0.21875 1.9297-0.85547 1.8633-2.0977-0.074218-1.1055-0.78125-1.8203-1.9062-1.8203-1.2266 0-1.9805 0.73047-1.9727 1.9531 0.007813 1.2344 0.8125 1.8398 2.0156 1.9648z" fill="#ff001b"/>
  <path d="m634.71 680.32c1.1992-0.15234 1.9883-0.74609 1.9805-1.9883-0.007812-1.2266-0.77344-1.9453-1.9883-1.9297-1.1328 0.015625-1.8477 0.72266-1.8984 1.8555-0.050782 1.2305 0.71484 1.8594 1.9062 2.0625z" fill="#ff001b"/>
  <path d="m563.9 688.14c1.1328-0.007813 1.8477-0.71484 1.9062-1.8359 0.066406-1.2344-0.69531-1.8789-1.8789-2.0898-1.1992 0.14062-1.9961 0.73828-1.9961 1.9805 0 1.2227 0.75391 1.9531 1.9688 1.9453z" fill="#ff001b"/>
  <path d="m579.66 688.21c1.0586-0.18359 1.9141-0.73828 1.9141-1.9883 0-1.2266-0.74609-1.957-1.9727-1.957-1.1328 0-1.8477 0.70312-1.9141 1.8281-0.074219 1.2344 0.6875 1.8828 1.9727 2.1172z" fill="#ff001b"/>
  <path d="m595.27 688.14c1.2422 0.066406 1.8789-0.69531 2.0898-1.8711-0.14062-1.207-0.73828-2.0039-1.9805-2.0039-1.2266 0-1.957 0.75391-1.9453 1.9805 0.007812 1.1289 0.70312 1.8359 1.8359 1.8945z" fill="#ff001b"/>
  <path d="m611.11 688.19c1.1992-0.16016 1.9727-0.78906 1.9648-2.0234-0.007813-1.1328-0.71484-1.8477-1.8281-1.9062-1.2266-0.058594-2.0039 0.66406-2.0547 1.8789-0.046875 1.2344 0.73438 1.8633 1.918 2.0508z" fill="#ff001b"/>
  <path d="m626.91 688.14c1.2344-0.007813 1.8359-0.8125 1.957-2.0234-0.22656-1.1758-0.87109-1.9297-2.1133-1.8555-1.125 0.074219-1.8203 0.78906-1.8203 1.9219 0.011718 1.2266 0.76172 1.9648 1.9766 1.957z" fill="#ff001b"/>
  <path d="m642.7 688.14c1.125-0.015625 1.8359-0.73047 1.8789-1.8555 0.050781-1.2422-0.72266-1.8789-1.9062-2.0742-1.1992 0.15234-1.9961 0.76562-1.9805 2.0039 0.019531 1.2266 0.79297 1.9492 2.0078 1.9258z" fill="#ff001b"/>
  <path d="m556.19 692.13c-1.2344-0.11719-2.0312 0.58594-2.1406 1.7891-0.015625 0.16016 0.097657 0.23438 0.11328 0.375 1.1367-0.32812 2.3008-0.63281 3.543-0.88672-0.22656-0.67969-0.69531-1.1953-1.5156-1.2773z" fill="#ff001b"/>
  <path d="m651.12 679.22c1.2344 0.042969 1.8711-0.73828 2.0391-1.9297-0.17578-1.1914-0.79688-1.9648-2.0391-1.9375-1.1328 0.015626-1.8477 0.72266-1.8984 1.8359-0.042968 1.2266 0.67188 1.9883 1.8984 2.0312z" fill="#ff001b"/>
  <path d="m659.08 687.09c1.1328-0.007813 1.8477-0.71484 1.9062-1.8359 0.066407-1.2344-0.69531-1.8789-1.8789-2.0898-1.1992 0.14063-1.9961 0.73828-1.9961 1.9805 0 1.2227 0.75391 1.9531 1.9688 1.9453z" fill="#ff001b"/>
  <path d="m674.84 687.16c0.375-0.066406 0.66406-0.25 0.96094-0.42188-0.98047-0.67969-1.8984-1.2891-2.8438-1.9102-0.015625 0.085937-0.085937 0.125-0.089844 0.21875-0.074219 1.2344 0.6875 1.8789 1.9727 2.1133z" fill="#ff001b"/>
  <path d="m675.8 686.73c0.25-0.14844 0.41406-0.36719 0.56641-0.60938-1.0664-0.74219-2.0664-1.4102-3.0859-2.0781-0.15234 0.22656-0.27344 0.47266-0.32422 0.78125 0.94531 0.61719 1.8633 1.2266 2.8438 1.9062z" fill="#ff001b"/>
  <path d="m649.23 692.87c-0.10938 1.2344 0.66406 1.8984 1.8281 2.1328 1.207-0.10938 2.0039-0.70703 2.0547-1.9375 0.042969-1.1328-0.64453-1.8711-1.7461-1.9805-1.2305-0.11719-2.0273 0.58594-2.1367 1.7852z" fill="#ff001b"/>
  <path d="m667.02 695c1.168-0.22656 1.9219-0.87109 1.8477-2.1133-0.066406-1.1172-0.78125-1.8203-1.9219-1.8125-1.2266 0.007813-1.9727 0.74609-1.9531 1.9648 0.011719 1.2383 0.80859 1.8438 2.0273 1.9609z" fill="#ff001b"/>
  <path d="m680.73 692.96c-0.042969 1.2422 0.73828 1.8711 1.9219 2.0469 1.0586-0.14844 1.6875-0.72656 1.832-1.6953-0.81641-0.67578-1.6445-1.3359-2.4805-1.9922-0.71484 0.24609-1.2422 0.74219-1.2734 1.6406z" fill="#ff001b"/>
  <path d="m674.84 702.89c1.0586-0.18359 1.9141-0.73828 1.9141-1.9883 0-1.2266-0.74609-1.957-1.9727-1.957-1.1328 0-1.8477 0.70312-1.9141 1.8281-0.074219 1.2344 0.6875 1.8711 1.9727 2.1172z" fill="#ff001b"/>
  <path d="m688.61 700.86c-0.035157 1.125 0.64453 1.8555 1.7617 1.9531 1.2266 0.10938 2.0234-0.59375 2.1133-1.7969 0.003906-0.066406-0.046875-0.089843-0.046875-0.15234-0.57812-0.64063-1.0664-1.2773-1.6953-1.9141-0.039062-0.007813-0.054687-0.039063-0.097656-0.046875-1.2109 0.11719-2 0.71484-2.0352 1.957z" fill="#ff001b"/>
  <path d="m737.72 702.82c1.2422 0.050781 1.8789-0.71484 2.0742-1.9062-0.16016-1.1992-0.76562-1.9883-1.9961-1.9727-1.2266 0.015626-1.957 0.77344-1.9297 1.9961 0.023437 1.1367 0.73828 1.832 1.8516 1.8828z" fill="#ff001b"/>
  <path d="m666.94 710.74c1.1914-0.17578 1.957-0.8125 1.9219-2.0469-0.035156-1.1328-0.73047-1.8477-1.8555-1.8789-1.2266-0.035156-1.9883 0.67969-2.0234 1.9062-0.023438 1.2383 0.75781 1.8594 1.957 2.0195z" fill="#ff001b"/>
  <path d="m682.59 710.7c1.2344 0.035157 1.9961-0.6875 2.0312-1.9141 0.023437-1.2422-0.77344-1.8555-1.9648-2.0156-1.1914 0.17578-1.9531 0.8125-1.9219 2.0469 0.035156 1.1367 0.73828 1.8438 1.8555 1.8828z" fill="#ff001b"/>
  <path d="m696.48 708.67c-0.050781 1.2422 0.72266 1.8789 1.9062 2.0742 0.51953-0.066407 0.91406-0.26172 1.25-0.51172-0.62891-0.49609-1.2227-1.0508-1.7617-1.6914l-0.0625-0.097656c-0.16797-0.375-0.49609-0.76953-0.69922-1.1484-0.36719 0.31641-0.60547 0.76953-0.63281 1.375z" fill="#ff001b"/>
  <path d="m729.9 710.69c1.2422 0.035156 1.8633-0.75391 2.0391-2.0742-0.24219-1.0156-0.80469-1.8555-2.0742-1.8047-1.125 0.042968-1.8359 0.73828-1.8711 1.8555-0.039063 1.2344 0.67969 1.9922 1.9062 2.0234z" fill="#ff001b"/>
  <path d="m755.15 682.19c-1.1992 0.14453-1.9961 0.73828-1.9961 1.9805 0 1.2266 0.75391 1.9531 1.9727 1.9453 0.49609-0.003906 0.875-0.19141 1.1914-0.44141 0.23047-0.49219 0.47266-1.0117 0.6875-1.4805 0.015625-1.1602-0.70703-1.8008-1.8555-2.0039z" fill="#ff001b"/>
  <path d="m747.41 690.11c-1.2344-0.11719-2.0312 0.58594-2.1406 1.7852-0.10938 1.2344 0.66406 1.8984 1.8281 2.1328 1.207-0.10938 2.0039-0.70312 2.0547-1.9375 0.046875-1.1328-0.64062-1.8711-1.7422-1.9805z" fill="#ff001b"/>
  <path d="m745.27 707.76c0 0.082032 0.0625 0.11328 0.070313 0.19141 0.30078-0.58594 0.60938-1.1797 0.90625-1.7617-0.5625 0.30859-0.98047 0.78906-0.97656 1.5703z" fill="#ff001b"/>
  <path d="m747.09 705.84c-0.35156 0.019531-0.57422 0.21094-0.83594 0.35156-0.29688 0.58203-0.60938 1.1758-0.90625 1.7617 0.039062 0.42969 0.17188 0.78906 0.39062 1.0664 0.53906-1.0391 1.0742-2.0703 1.6016-3.1016-0.097657-0.003906-0.14453-0.085937-0.25-0.078124z" fill="#ff001b"/>
 </g>
</svg>
